<?xml version="1.0" encoding="UTF-8"?>
<svg version="1.1" xmlns="http://www.w3.org/2000/svg" width="512" height="512">
<path d="M0 0 C4.95979287 2.85749384 8.8723289 6.99198669 10.6875 12.4375 C11.78152988 25.70933793 11.78152988 25.70933793 8.11328125 30.83984375 C0.59817332 39.2608825 -8.41628329 44.30373277 -18.3125 49.4375 C-19.44042969 50.03433594 -20.56835938 50.63117188 -21.73046875 51.24609375 C-62.81997983 71.71992378 -111.01589084 78.28358902 -156.41468775 78.06180525 C-160.80358802 78.04604765 -165.19242497 78.05986211 -169.58132935 78.06954956 C-178.12391946 78.08390567 -186.66626791 78.07202265 -195.20883488 78.05043632 C-205.17833405 78.02618478 -215.14778072 78.02815481 -225.11730284 78.03074223 C-242.9009241 78.0344125 -260.68443263 78.01376742 -278.46801758 77.97949219 C-295.69721311 77.94629829 -312.92629072 77.93225552 -330.15551758 77.93847656 C-348.98578296 77.94524238 -367.81599932 77.94278364 -386.64625746 77.92311716 C-388.13932158 77.92155793 -388.13932158 77.92155793 -389.66254862 77.9199672 C-391.661119 77.91787652 -393.65968936 77.91576555 -395.6582597 77.91363403 C-402.59994053 77.90675127 -409.54160619 77.90606678 -416.48328972 77.90751648 C-424.92980386 77.90895664 -433.37622219 77.89925405 -441.82270455 77.87557012 C-446.1277727 77.86372652 -450.4327074 77.85657449 -454.73779106 77.86240768 C-458.68034633 77.86759207 -462.62261994 77.85884748 -466.56512708 77.83913308 C-467.98827046 77.83440734 -469.4114414 77.83467535 -470.83458053 77.84054345 C-479.77477309 77.87383716 -487.40775115 77.48934373 -495.125 72.6875 C-500.19442798 67.47323122 -501.60226754 63.79728433 -501.9375 56.5625 C-501.7268248 49.73371777 -500.17342645 45.27710659 -495.3125 40.4375 C-489.7152061 36.0431333 -484.01187371 35.31246877 -477.08795738 35.31280136 C-475.19606684 35.30921494 -475.19606684 35.30921494 -473.26595628 35.30555606 C-471.86865944 35.3079345 -470.47136273 35.31039449 -469.07406616 35.31292725 C-467.5875659 35.31194083 -466.10106588 35.31050357 -464.61456645 35.30865407 C-461.38143607 35.30559493 -458.14832628 35.30570273 -454.91519547 35.30821037 C-449.65345975 35.3122709 -444.39174013 35.30950021 -439.13000488 35.30586243 C-432.47740329 35.30177073 -425.82480529 35.29953277 -419.17220242 35.29944643 C-406.07512265 35.29924343 -392.9780798 35.28676612 -379.88101196 35.26983643 C-377.81691341 35.26723058 -375.75281486 35.26463177 -373.68871629 35.2620399 C-370.56001109 35.25810122 -367.43130589 35.2541547 -364.30260073 35.25017868 C-352.50202825 35.23522838 -340.70145463 35.22160872 -328.90087891 35.20947266 C-327.28286807 35.20780231 -327.28286807 35.20780231 -325.63217016 35.20609823 C-308.20403461 35.18857335 -290.77592233 35.18565065 -273.34777944 35.18732306 C-255.42432449 35.18860687 -237.50095535 35.17074222 -219.57753336 35.13630509 C-208.54253588 35.11576112 -197.50774483 35.11023706 -186.47273667 35.1246334 C-178.88631608 35.1331618 -171.30005435 35.12318183 -163.7136672 35.0993239 C-159.35178497 35.08615511 -154.99028477 35.08058662 -150.62840652 35.09744453 C-130.55889503 35.16896828 -111.97184032 33.98007886 -92.3125 29.4375 C-90.80454807 29.10825125 -89.29614039 28.781077 -87.7871151 28.45678329 C-84.50636135 27.73906539 -81.25389863 26.95532461 -78 26.125 C-76.85394287 25.83431641 -75.70788574 25.54363281 -74.52709961 25.24414062 C-54.93593872 20.12312125 -36.72808043 13.46905885 -20.5546875 1.0390625 C-14.82718209 -3.0520128 -6.29296603 -2.84276844 0 0 Z " fill="#000000" transform="translate(501.3125,272.5625)"/>
<path d="M0 0 C0.62037849 9.68479759 0.62037849 9.68479759 -1.5625 14.3125 C-26.58601585 41.90253029 -79.24375943 52.3278929 -114.52180648 54.18543875 C-118.23301417 54.25791121 -121.93943983 54.27158504 -125.65133667 54.26069641 C-127.07252645 54.26372528 -128.49371461 54.26761841 -129.91489995 54.27228898 C-133.77859267 54.28248189 -137.6421917 54.28040973 -141.5058918 54.27610838 C-145.68853353 54.27362538 -149.87115361 54.28267438 -154.05378723 54.29014587 C-162.22945585 54.30284839 -170.40509156 54.30469239 -178.58076839 54.30234561 C-185.22558316 54.30055841 -191.87038799 54.30232067 -198.51520157 54.30657005 C-199.93681496 54.30746284 -199.93681496 54.30746284 -201.38714782 54.30837366 C-203.3127315 54.30958546 -205.23831517 54.31079959 -207.16389884 54.31201603 C-225.18933387 54.32287302 -243.21475015 54.32073697 -261.24018623 54.31463119 C-277.72679093 54.30945554 -294.21333666 54.32073781 -310.6999297 54.33972941 C-327.64608309 54.35910034 -344.59220857 54.36736563 -361.53837311 54.36360615 C-371.04555907 54.36169402 -380.55269476 54.36418351 -390.05987167 54.37832069 C-398.14707855 54.39022545 -406.23420415 54.39164902 -414.32141213 54.37953053 C-418.4459961 54.37363741 -422.57043131 54.37255463 -426.69500542 54.38453293 C-430.47229078 54.39537535 -434.24930285 54.39230814 -438.02657534 54.37827124 C-440.03613586 54.37436643 -442.04570844 54.38518426 -444.05524051 54.39656812 C-451.44643802 54.35225815 -458.12866575 54.23223353 -464.05859375 49.28125 C-464.51363281 48.6934375 -464.96867187 48.105625 -465.4375 47.5 C-465.91058594 46.9121875 -466.38367188 46.324375 -466.87109375 45.71875 C-469.36368394 41.923803 -469.0829637 38.39707616 -469 34 C-467.89375106 34.00024353 -467.89375106 34.00024353 -466.76515365 34.00049198 C-422.89793387 34.00938536 -379.03082483 33.98679196 -335.16364591 33.92420971 C-329.8774895 33.91669511 -324.59133277 33.90943935 -319.30517578 33.90234375 C-318.25295071 33.900927 -317.20072564 33.89951025 -316.11661497 33.89805056 C-299.15658673 33.8758299 -282.19661953 33.87450002 -265.23658082 33.88111137 C-247.78896053 33.88743943 -230.34146701 33.87080566 -212.8938849 33.83356392 C-202.15786647 33.8113504 -191.42213869 33.80631301 -180.6861113 33.82440336 C-173.28923782 33.83513807 -165.89259914 33.82324857 -158.4957737 33.79483847 C-154.25021605 33.77916062 -150.005219 33.77222864 -145.75966835 33.79260826 C-94.59176032 34.01835139 -39.11642396 0 0 0 Z " fill="#000000" transform="translate(495,322)"/>
<path d="M0 0 C1.4885649 2.56678433 2.56726121 4.84606195 3.62890625 7.5859375 C3.94528549 8.35749176 4.26166473 9.12904602 4.58763123 9.92398071 C5.59776904 12.40060757 6.58007055 14.88727006 7.5625 17.375 C8.22676493 19.01243005 8.89276257 20.64915833 9.56054688 22.28515625 C12.88109031 30.46853419 15.9797878 38.69441646 19 47 C-12.02 47 -43.04 47 -75 47 C-76.19746233 31.43298969 -76.19746233 31.43298969 -73 25 C-72.71640625 24.39800781 -72.4328125 23.79601562 -72.140625 23.17578125 C-65.32464312 11.50996611 -48.79753698 7.1695581 -36.65576172 3.69580078 C-29.8566909 1.91446673 -22.97007159 0.84410799 -16 0 C-14.32357422 -0.21269531 -14.32357422 -0.21269531 -12.61328125 -0.4296875 C-3.72067044 -1.40324436 -3.72067044 -1.40324436 0 0 Z " fill="#000000" transform="translate(90,255)"/>
<path d="M0 0 C0.72960937 0.05542969 1.45921875 0.11085937 2.2109375 0.16796875 C6.82545955 1.40000134 9.93368755 3.74237764 12.51367188 7.73608398 C13.03509766 8.85313721 13.55652344 9.97019043 14.09375 11.12109375 C14.38487671 11.73625351 14.67600342 12.35141327 14.97595215 12.98521423 C15.8811535 14.91837348 16.75749901 16.86216046 17.625 18.8125 C18.14964844 19.9895752 18.67429688 21.16665039 19.21484375 22.37939453 C20.57919842 25.5091595 21.92106514 28.64638669 23.24697876 31.79251099 C24.84586772 35.58475261 26.46105757 39.37006289 28.07421875 43.15625 C28.42751755 43.98633072 28.78081635 44.81641144 29.14482117 45.67164612 C33.52924747 55.95888217 37.99530183 66.21069053 42.4548645 76.46551514 C51.99757748 98.41004264 61.49514329 120.37351061 70.87605286 142.38777161 C72.38264337 145.92163334 73.90053199 149.44947655 75.44873047 152.96533203 C75.73195663 153.61268814 76.0151828 154.26004425 76.30699158 154.92701721 C77.0646212 156.65626106 77.82786272 158.38304319 78.59155273 160.10961914 C79.625 162.8125 79.625 162.8125 79.625 165.8125 C77.315 165.8125 75.005 165.8125 72.625 165.8125 C72.45677734 164.87277344 72.45677734 164.87277344 72.28515625 163.9140625 C71.65306692 161.29481651 70.96148708 159.15675889 69.625 156.8125 C66.15367605 155.5176713 66.15367605 155.5176713 63.51953125 155.2734375 C59.70536871 154.66605399 56.20510873 153.44635535 52.5625 152.1875 C51.8828418 151.95643555 51.20318359 151.72537109 50.50292969 151.48730469 C48.87552719 150.93320695 47.25005213 150.37345344 45.625 149.8125 C46.058125 150.79992187 46.49125 151.78734375 46.9375 152.8046875 C47.50019045 154.09887554 48.06268005 155.39315093 48.625 156.6875 C48.91117187 157.33847656 49.19734375 157.98945313 49.4921875 158.66015625 C51.625 163.5859375 51.625 163.5859375 51.625 165.8125 C49.315 165.8125 47.005 165.8125 44.625 165.8125 C39.02805295 154.05722706 33.82381538 142.15003512 28.6875 130.1875 C27.84814899 128.23744181 27.00854512 126.28749243 26.16870117 124.33764648 C24.46642355 120.38513575 22.76509441 116.43221896 21.06445312 112.47900391 C17.85603855 105.02333311 14.63430483 97.57343959 11.4107666 90.1242981 C10.43985874 87.88045125 9.46937095 85.6364232 8.49902344 83.39233398 C5.45361604 76.34955344 2.40666313 69.30744608 -0.64311218 62.26655579 C-2.09962696 58.9037075 -3.55553312 55.54059587 -5.01138306 52.17745972 C-5.69953426 50.58823662 -6.38797913 48.99914065 -7.07675171 47.41018677 C-8.91188358 43.17660164 -10.74233872 38.94108139 -12.56295776 34.70123291 C-13.34566364 32.88073359 -14.1328289 31.06215352 -14.92016602 29.24365234 C-15.37447998 28.17969238 -15.82879395 27.11573242 -16.296875 26.01953125 C-16.68842773 25.10792236 -17.07998047 24.19631348 -17.48339844 23.25708008 C-19.40374727 17.99189583 -18.98907806 13.70198718 -16.75 8.5625 C-14.36768885 4.26251286 -11.19507688 1.71032039 -6.4609375 0.203125 C-4.18631146 -0.22283493 -2.30268907 -0.21410969 0 0 Z M-10.375 10.8125 C-12.00661427 14.07572855 -11.84627721 17.28083004 -11.375 20.8125 C-10.15439449 24.45181688 -8.54579736 27.86052227 -6.875 31.3125 C-6.44574219 32.2303125 -6.01648438 33.148125 -5.57421875 34.09375 C-4.52123549 36.34011429 -3.45477474 38.57892342 -2.375 40.8125 C0.56568716 41.15481197 0.56568716 41.15481197 1.95947266 39.55908203 C2.3982373 38.98528809 2.83700195 38.41149414 3.2890625 37.8203125 C3.77117187 37.19769531 4.25328125 36.57507813 4.75 35.93359375 C5.4925 34.94552734 5.4925 34.94552734 6.25 33.9375 C6.75273438 33.28652344 7.25546875 32.63554687 7.7734375 31.96484375 C10.43538254 28.53936973 10.43538254 28.53936973 12.625 24.8125 C11.83547807 22.44393421 10.98263706 20.22411042 10 17.9375 C9.75121094 17.31230469 9.50242187 16.68710938 9.24609375 16.04296875 C7.4381051 11.78834869 5.53268223 9.28371337 1.625 6.8125 C-3.85770491 6.02925644 -6.47292977 6.91042977 -10.375 10.8125 Z M14.625 32.8125 C12.82507488 34.86826732 11.03514591 36.93146218 9.25 39 C8.74210937 39.57814453 8.23421875 40.15628906 7.7109375 40.75195312 C6.97617188 41.60756836 6.97617188 41.60756836 6.2265625 42.48046875 C5.77619629 42.99891357 5.32583008 43.5173584 4.86181641 44.05151367 C3.25952312 46.33286809 2.31511299 48.08940458 1.625 50.8125 C2.44810902 54.06615262 2.44810902 54.06615262 4.0546875 57.42578125 C4.32386993 58.04019577 4.59305237 58.65461029 4.87039185 59.28764343 C5.73071092 61.24110654 6.61479961 63.18270397 7.5 65.125 C8.08884205 66.45046113 8.67610046 67.77662701 9.26171875 69.10351562 C10.69788583 72.34821146 12.15556207 75.58271215 13.625 78.8125 C14.615 78.8125 15.605 78.8125 16.625 78.8125 C18.63285473 76.58384014 20.44616991 74.38396815 22.25 72 C22.75273438 71.35740234 23.25546875 70.71480469 23.7734375 70.05273438 C25.9217347 67.26630051 27.50052765 65.18591706 28.625 61.8125 C27.67105385 58.78335894 27.67105385 58.78335894 26.16796875 55.4296875 C25.90494461 54.81481476 25.64192047 54.19994202 25.3709259 53.56643677 C24.81303502 52.26836373 24.25038418 50.97232762 23.68334961 49.67822266 C22.81488127 47.69294348 21.96404242 45.70078321 21.11523438 43.70703125 C18.96620032 37.30816841 18.96620032 37.30816841 14.625 32.8125 Z M30.625 70.8125 C28.71069153 72.85679238 26.90914112 74.90954418 25.125 77.0625 C24.62613281 77.64902344 24.12726563 78.23554688 23.61328125 78.83984375 C21.56368306 81.28257994 21.56368306 81.28257994 19.625 83.8125 C19.18816895 84.39580078 18.75133789 84.97910156 18.30126953 85.58007812 C17.24756949 89.05842945 18.81758606 91.62565082 20.2734375 94.765625 C20.71050522 95.75595734 20.71050522 95.75595734 21.15640259 96.76629639 C22.08970777 98.87188175 23.04441878 100.966944 24 103.0625 C24.63685142 104.48894364 25.27228585 105.91602081 25.90625 107.34375 C27.4628244 110.84089497 29.03866528 114.32875975 30.625 117.8125 C31.615 117.8125 32.605 117.8125 33.625 117.8125 C35.63306057 115.77499573 37.43999566 113.76372923 39.25 111.5625 C39.75273438 110.97597656 40.25546875 110.38945312 40.7734375 109.78515625 C44.25172321 105.7911097 44.25172321 105.7911097 45.625 100.8125 C44.80832739 98.38630101 43.93478758 96.17729318 42.87890625 93.859375 C42.58894272 93.19915344 42.29897919 92.53893188 42.00022888 91.85870361 C41.07336293 89.75503629 40.13072504 87.6588759 39.1875 85.5625 C38.5555875 84.13588268 37.92471548 82.708804 37.29492188 81.28125 C35.75029529 77.78620224 34.19148782 74.29780098 32.625 70.8125 C31.965 70.8125 31.305 70.8125 30.625 70.8125 Z M47.625 109.8125 C45.71196658 112.04732454 43.90633347 114.2890136 42.125 116.625 C41.62613281 117.26759766 41.12726563 117.91019531 40.61328125 118.57226562 C36.13684558 123.66086345 36.13684558 123.66086345 34.93359375 129.88671875 C36.62985957 135.31594325 38.00760882 139.32083572 43.14306641 142.24755859 C54.03612868 146.97199401 54.03612868 146.97199401 65.625 148.8125 C63.02933638 140.35082401 59.48904519 132.34063981 55.9375 124.25 C55.3245152 122.84585787 54.71188215 121.44156213 54.09960938 120.03710938 C52.61212342 116.62712598 51.11989052 113.21924496 49.625 109.8125 C48.965 109.8125 48.305 109.8125 47.625 109.8125 Z " fill="#000000" transform="translate(72.375,136.1875)"/>
<path d="M0 0 C1.9375 0.1875 1.9375 0.1875 4 1 C5.12890625 3.05078125 5.12890625 3.05078125 6 5 C4.60823368 5.96423026 3.2113777 6.92111602 1.8125 7.875 C1.03519531 8.40867187 0.25789063 8.94234375 -0.54296875 9.4921875 C-2.9676609 10.98015439 -5.3333499 12.02428078 -8 13 C-7.34 14.98 -6.68 16.96 -6 19 C-5.33355469 18.63648438 -4.66710937 18.27296875 -3.98046875 17.8984375 C2.6796875 14.265625 9.33984375 10.6328125 16 7 C16 20.2 16 33.4 16 47 C1.48 47 -13.04 47 -28 47 C-28 33 -28 33 -24.5 29.4453125 C-22.3125 28.21484375 -22.3125 28.21484375 -20 27.125 C-19.236875 26.71121094 -18.47375 26.29742187 -17.6875 25.87109375 C-15.81689506 24.8656436 -13.91128846 23.92578035 -12 23 C-12.99 21.35 -13.98 19.7 -15 18 C-19.29 20.64 -23.58 23.28 -28 26 C-29.32 24.68 -30.64 23.36 -32 22 C-30.5170055 17.6388615 -27.30630689 16.06182809 -23.49609375 13.92578125 C-22.53836815 13.3718293 -22.53836815 13.3718293 -21.56129456 12.8066864 C-19.5256261 11.63188956 -17.48198076 10.47188045 -15.4375 9.3125 C-13.39135027 8.13932936 -11.34690954 6.96323618 -9.30299377 5.78617859 C-8.03152148 5.05537501 -6.75839586 4.32743919 -5.48350525 3.60261536 C-2.5680151 2.04180667 -2.5680151 2.04180667 0 0 Z " fill="#000000" transform="translate(353,255)"/>
<path d="M0 0 C2.90431943 2.23429614 3.78590133 4.6375173 4.90112305 8.06640625 C5.24124924 9.09757568 5.58137543 10.12874512 5.93180847 11.19116211 C6.28817886 12.30370361 6.64454926 13.41624512 7.01171875 14.5625 C7.57135063 16.27675171 7.57135063 16.27675171 8.14228821 18.02563477 C8.92901049 20.441795 9.71130385 22.85940114 10.48950195 25.27832031 C11.68379241 28.98848206 12.89246997 32.69371525 14.10351562 36.3984375 C14.86543617 38.74451487 15.62653197 41.09086028 16.38671875 43.4375 C16.74916183 44.5500415 17.11160492 45.66258301 17.48503113 46.80883789 C17.81570084 47.84000732 18.14637054 48.87117676 18.48706055 49.93359375 C18.78001511 50.84165771 19.07296967 51.74972168 19.37480164 52.68530273 C20 55 20 55 20 58 C15.71 58 11.42 58 7 58 C4.71205313 50.97376689 2.43365997 43.9445353 0.1640625 36.91235352 C-0.60935896 34.52055413 -1.38538376 32.12959494 -2.1640625 29.73950195 C-3.28290419 26.30377316 -4.39234703 22.86513103 -5.5 19.42578125 C-5.84998047 18.35789871 -6.19996094 17.29001617 -6.56054688 16.18977356 C-6.88087891 15.18911362 -7.20121094 14.18845367 -7.53125 13.1574707 C-7.81548828 12.28032913 -8.09972656 11.40318756 -8.39257812 10.49946594 C-9.02902961 7.88054675 -9.18996439 5.68458805 -9 3 C-6.73529086 -0.64869805 -4.03159541 -0.50394943 0 0 Z " fill="#000000" transform="translate(258,244)"/>
</svg>
